# xmcd
#
# Track frame offsets: 
#        150
#        20432
#        34520
#        54862
#        72415
#        90907
#        107062
#        131717
#        146970
#        167042
#        186130
#        221792
#
# Disc length: 3471 seconds
#
# Revision: 7
# Processed by: cddbd v1.5.2PL0 Copyright (c) Steve Scherf et al.
# Submitted via: ExactAudioCopy v0.99pb3
#
DISCID=a80d8d0c
DTITLE=蕭亞軒 - 紅薔薇
DYEAR=2000
DGENRE=(13)Pop
TTITLE0=01 雨季中
TTITLE1=02 一個人的精采
TTITLE2=03 窗外的天氣
TTITLE3=04 準備好了沒有
TTITLE4=05 上鉤了
TTITLE5=06 夜
TTITLE6=07 薔薇
TTITLE7=08 電影預告
TTITLE8=09 給我重新愛你的機會
TTITLE9=10 先問你自己
TTITLE10=11 回憶信箋
TTITLE11=Data Track
EXTD=YEAR: 2000 ID3G: 13
EXTT0=
EXTT1=
EXTT2=
EXTT3=
EXTT4=
EXTT5=
EXTT6=
EXTT7=
EXTT8=
EXTT9=
EXTT10=
EXTT11=
PLAYORDER=
